<svg id="Capa_1" enable-background="new 0 0 511.949 511.949" height="512" viewBox="0 0 511.949 511.949" width="512" xmlns="http://www.w3.org/2000/svg"><g><g><path d="m132.979 74.367v79.285c0 5.522 4.477 10 10 10h77.622c5.523 0 10-4.478 10-10v-79.285c0-5.522-4.477-10-10-10h-77.622c-5.523 0-10 4.477-10 10zm20 10h57.622v59.285h-57.622z"/><path d="m274.488 84.367h95.708c5.523 0 10-4.478 10-10s-4.477-10-10-10h-95.708c-5.523 0-10 4.478-10 10s4.477 10 10 10z"/><path d="m336.212 262.551c0-5.522-4.477-10-10-10h-183.233c-5.523 0-10 4.478-10 10s4.477 10 10 10h183.233c5.523 0 10-4.477 10-10z"/><path d="m380.196 212.447c0-5.522-4.477-10-10-10h-227.217c-5.523 0-10 4.478-10 10s4.477 10 10 10h227.217c5.523 0 10-4.478 10-10z"/><path d="m274.488 132.33h95.708c5.523 0 10-4.478 10-10s-4.477-10-10-10h-95.708c-5.523 0-10 4.478-10 10s4.477 10 10 10z"/><path d="m511.949 383.488c0-41.425-31.163-75.687-71.272-80.632v-291.263c0-5.522-4.477-10-10-10h-136.812c-5.523 0-10 4.478-10 10s4.477 10 10 10h126.811v281.242c-40.013 4.943-71.268 40.362-71.268 80.655 0 17.765 6.008 35.399 16.844 49.475 3.296 4.282 7.014 8.242 11.087 11.793h-238.598c1.18-4.397 2.252-8.824 3.198-13.276 1.765-8.279 3.085-16.203 3.085-24.993v-.001-84.123c-.015-15.111-9.779-29.072-23.704-34.759-4.331-1.769-9.001-2.7-13.68-2.7-5.9 0-11.476 1.427-16.411 3.959l.01-267.273h114.652c5.523 0 10-4.478 10-10s-4.477-10-10-10h-124.651c-5.522 0-10 4.477-10 10l-.009 234.784h-7.864c-14.197 0-25.759 7.46-32.557 21.006l-22.014 43.869c-11.344 22.076-11.738 48.627-1.053 71.023.055.116.113.232.173.347l31.608 60.146c4.931 9.376 6.724 16.911 5.707 27.701l-2.873 28.899c-.546 5.496 3.466 10.394 8.962 10.94 5.422.535 10.401-3.538 10.94-8.962l2.877-28.95c1.119-11.871.157-23.035-8.177-39.442l-31.247-59.459c-7.931-16.762-7.609-36.601.914-53.188l22.058-43.952c4.487-8.942 10.528-9.977 14.681-9.977h7.861v54.925.457 60.317c0 5.522 4.477 10 10 10s10-4.478 10-10v-60.317c0-8.855 7.421-16.852 16.417-16.852 9.127 0 17.378 8.352 17.378 17.458v84.123c0 6.987-1.093 13.544-2.649 20.85-3.522 16.493-7.857 31.938-6.948 49.022l1.429 24.576c.32 5.514 5.045 9.703 10.564 9.403 5.513-.32 9.723-5.05 9.402-10.563l-1.426-24.527c-.186-3.505-.164-7.005.036-10.49h295.244c.038 0 .075-.005.113-.006 44.764-.059 81.162-36.49 81.162-81.265zm-81.269 61.268c-33.783 0-61.268-27.485-61.268-61.269 0-33.727 27.951-60.81 61.317-61.267 33.761.027 61.22 27.5 61.22 61.267 0 33.784-27.485 61.269-61.269 61.269z"/><path d="m461.724 351.324c-3.905-3.903-10.237-3.904-14.142 0l-16.901 16.901-16.901-16.901c-3.905-3.903-10.237-3.904-14.142 0-3.905 3.905-3.906 10.237 0 14.143l16.901 16.901-16.9 16.9c-3.905 3.905-3.906 10.237 0 14.143 3.853 3.851 10.289 3.853 14.142 0l16.901-16.9 16.901 16.901c3.853 3.851 10.289 3.853 14.142 0 3.905-3.905 3.906-10.237 0-14.143l-16.901-16.901 16.901-16.9c3.904-3.907 3.904-10.239-.001-14.144z"/><path d="m360.959 266.375c2.094 5.031 8.02 7.497 13.06 5.41 5.036-2.085 7.497-8.023 5.41-13.06-2.085-5.032-8.026-7.498-13.06-5.41-5.021 2.083-7.506 8.033-5.41 13.06z"/><path d="m326.878 346.473c0-5.522-4.477-10-10-10h-133.101c-5.523 0-10 4.478-10 10s4.477 10 10 10h133.102c5.522 0 9.999-4.477 9.999-10z"/><path d="m183.777 382.431c-5.523 0-10 4.478-10 10s4.477 10 10 10h70.028c5.523 0 10-4.478 10-10s-4.477-10-10-10z"/><path d="m240.979 15.415c3.36 8.203 15.396 7.983 18.558-.228 3.339-8.67-6.479-16.956-14.456-12.173-4.19 2.513-5.985 7.885-4.102 12.401z"/></g></g></svg>