<svg id="Capa_1" enable-background="new 0 0 512 512" height="512" viewBox="0 0 512 512" width="512" xmlns="http://www.w3.org/2000/svg"><g><path d="m38.5 52.5h-15v459.5h165v-15h-150z"/><path d="m203.5 497h15v15h-15z"/><path d="m139.75 271h97.5v15h-97.5z"/><path d="m139.75 301h195v15h-195z"/><path d="m139.75 360.999h97.5v15h-97.5z"/><path d="m139.75 211h195v15h-195z"/><path d="m139.75 121.001h195v15h-195z"/><path d="m139.75 181.001h97.5v15h-97.5z"/><path d="m139.75 91.002h97.5v15h-97.5z"/><path d="m124.75 91.002h-45v45h45zm-15 29.999h-15v-15h15z"/><path d="m79.75 226h45v-45h-45zm15-29.999h15v15h-15z"/><path d="m79.75 316h45v-45h-45zm15-30h15v15h-15z"/><path d="m79.75 405.998h45v-45h-45zm15-29.999h15v15h-15z"/><path d="m398.5 317.286v-252.892l-64.394-64.394h-310.606v37.5h15v-22.5h285v60h60v242.285c-42.323 3.235-77.167 33.613-87.13 73.712h-156.62v15h154.125c-.243 2.803-.375 5.637-.375 8.502 0 34.698 18.223 65.216 45.597 82.5h-105.597v15h157.5c53.762 0 97.5-43.738 97.5-97.5 0-51.238-39.729-93.371-90-97.213zm-60-291.679 34.394 34.393h-34.394zm52.5 471.393c-45.49 0-82.5-37.009-82.5-82.5s37.01-82.5 82.5-82.5 82.5 37.009 82.5 82.5-37.01 82.5-82.5 82.5z"/><path d="m394.75 407h-7.5c-4.135 0-7.499-3.365-7.499-7.5s3.364-7.5 7.499-7.5h7.501c2.818 0 5.46 1.652 6.729 4.209l13.438-6.668c-3.271-6.59-9.367-11.042-16.417-12.219v-15.322h-15v15.318c-10.627 1.791-18.749 11.053-18.749 22.181 0 12.407 10.093 22.5 22.499 22.5h7.5c4.136 0 7.5 3.364 7.5 7.5 0 4.135-3.364 7.5-7.5 7.5h-7.5c-2.819 0-5.461-1.652-6.729-4.209l-13.438 6.668c3.215 6.479 9.424 10.995 16.417 12.205v15.337h15v-15.318c10.627-1.791 18.75-11.053 18.75-22.181-.001-12.408-10.095-22.501-22.501-22.501z"/><path d="m436.001 407h15v15h-15z"/><path d="m331 407h15v15h-15z"/></g></svg>