<svg xmlns="http://www.w3.org/2000/svg" xmlns:xlink="http://www.w3.org/1999/xlink"><symbol id="icon-arrow-left" viewBox="0 0 493.353 493.352"><path d="M490.786 212.678c-1.718-1.713-3.901-2.568-6.57-2.568H127.907v-63.953c0-3.809-1.812-6.567-5.424-8.28-3.621-1.521-6.952-.949-9.995 1.713L2.853 240.658C.95 242.564 0 244.848 0 247.511c0 2.474.95 4.665 2.853 6.567l109.636 99.928c3.046 2.474 6.377 2.956 9.995 1.427 3.612-1.52 5.424-4.278 5.424-8.278v-63.953h356.315c2.663 0 4.854-.859 6.564-2.567 1.711-1.711 2.566-3.897 2.566-6.563v-54.821c.003-2.665-.856-4.858-2.567-6.573z"/></symbol><symbol id="icon-arrow-right" viewBox="0 0 493.356 493.356"><path d="M490.498 239.278l-109.632-99.929c-3.046-2.474-6.376-2.95-9.993-1.427-3.613 1.525-5.427 4.283-5.427 8.282v63.954H9.136c-2.666 0-4.856.855-6.567 2.568C.859 214.438 0 216.628 0 219.292v54.816c0 2.663.855 4.853 2.568 6.563 1.715 1.712 3.905 2.567 6.567 2.567h356.313v63.953c0 3.812 1.817 6.57 5.428 8.278 3.62 1.529 6.95.951 9.996-1.708l109.632-101.077c1.903-1.902 2.852-4.182 2.852-6.849 0-2.468-.955-4.654-2.858-6.557z"/></symbol><symbol id="icon-bullhorn" viewBox="0 0 64 64"><path d="M37 54h-2v-9.8a1 1 0 00-2 0V54H7V34h8.32a1 1 0 000-2H6a1 1 0 00-1 1v21H3a1 1 0 00-1 1v2a5 5 0 005 5h26a5 5 0 005-5v-2a1 1 0 00-1-1zm-1 3a3 3 0 01-3 3h-2v-1a1 1 0 00-2 0v1H11v-1a1 1 0 00-2 0v1H7a3 3 0 01-3-3v-1h32zM54 8h2a1 1 0 000-2h-2a3 3 0 00-3 3v1h-1a1 1 0 000 2h1v3a1 1 0 002 0v-3h1a1 1 0 000-2h-1V9a1 1 0 011-1z"/><path d="M59 2H47a3 3 0 00-3 3v2a1 1 0 002 0V5a1 1 0 011-1h12a1 1 0 011 1v12a1 1 0 01-1 1H47a1 1 0 01-1-1v-6a1 1 0 00-2 0v6a3 3 0 003 3h12a3 3 0 003-3V5a3 3 0 00-3-3zM49 42a4 4 0 104-4 4 4 0 00-4 4zm6 0a2 2 0 11-2-2 2 2 0 012 2z"/><path d="M59 33H47a3 3 0 00-3 3v12a3 3 0 003 3h12a3 3 0 003-3v-2a1 1 0 00-2 0v2a1 1 0 01-1 1H47a1 1 0 01-1-1V36a1 1 0 011-1h12a1 1 0 011 1v6a1 1 0 002 0v-6a3 3 0 00-3-3zM24.47 13.85A1 1 0 0025 14a1 1 0 00.45-.11l6-3a1 1 0 000-1.78l-6-3A1 1 0 0024 7v6a1 1 0 00.47.85zM26 8.62L28.76 10 26 11.38z"/><path d="M27 19a9 9 0 10-9-9 9 9 0 009 9zm0-16a7 7 0 11-7 7 7 7 0 017-7zm10 20a1 1 0 00.8-.4l3-4a1 1 0 00-1.6-1.2l-3 4a1 1 0 00.2 1.4 1 1 0 00.6.2zm2.2 3.6a1 1 0 00.8.4 1 1 0 00.6-.2l4-3a1 1 0 10-1.2-1.6l-4 3a1 1 0 00-.2 1.4zm9.8 2.2a1 1 0 00-1.2-.8l-5 1a1 1 0 00.2 2h.2l5-1a1 1 0 00.8-1.2zM3 29h12a1 1 0 001-1V12a1 1 0 00-1-1H3a1 1 0 00-1 1v16a1 1 0 001 1zm1-16h10v14H4z"/><path d="M11 15H9a1 1 0 000 2h2a1 1 0 000-2zm0 4H7a1 1 0 000 2h4a1 1 0 000-2zm0 4H7a1 1 0 000 2h4a1 1 0 000-2zm25.12 5.7a1 1 0 00-1.74 1l4.41 7.63-16 6h-.15l-2.6 1.5-1.73 1a2 2 0 01-1.52.2 2 2 0 01-1.21-.93l-2-3.46a2 2 0 01.75-2.64l3.46-2 2.5 4.33a1 1 0 00.87.5 1 1 0 00.87-1.5l-2.58-4.46L32 25.52l.41.71a1 1 0 101.74-1l-1-1.73a1 1 0 00-.69-.48 1 1 0 00-.82.21l-14 11.54-4.26 2.46a4 4 0 00-1.84 4.53l-1 .57a3 3 0 00.72 5.5 3 3 0 00.78.1 3.06 3.06 0 001.5-.4l1-.57A3.88 3.88 0 0016.29 48a3.79 3.79 0 001.05.14 3.94 3.94 0 002-.54l.87-.5 2 3.47a3 3 0 004.09 1.1 3 3 0 001.1-4.1l-1.82-3.17 15-5.63a1 1 0 00.59-.6 1 1 0 00-.07-.83zM12.5 45.79a1 1 0 01-.76.1 1 1 0 01-.61-.46 1 1 0 01-.1-.76 1 1 0 01.47-.61l.87-.5 1 1.73zm13.16 2.8a1 1 0 01.1.76 1 1 0 01-.47.6 1 1 0 01-1.36-.36l-2-3.47 1.66-.95h.08z"/></symbol><symbol id="icon-business" viewBox="0 0 64 64"><path d="M59.131 24.553A6.962 6.962 0 0063 18.292V13c0-3.716-2.911-6.766-6.573-6.987L54.05 3.636A8.939 8.939 0 0047.687 1h-4.608A7.086 7.086 0 0036 8.079c0 2.162.968 4.176 2.657 5.527l1.701 1.361C40.007 17.884 40 19.883 40 20v1h2v.697c0 1.777.883 3.426 2.361 4.412a5.289 5.289 0 002.942.891h.271c.143 0 .284-.031.426-.042v3.622l-1.858.372a2.004 2.004 0 00-1.125.66l-1.201 1.401a19.963 19.963 0 00-3.029 4.787L35 43.586v-3.771A13.813 13.813 0 0021.185 26H21v-1.034a6.056 6.056 0 005.211-3.802c.524-1.308.789-2.685.789-4.094V13c0-.707-.151-1.377-.417-1.987A7.74 7.74 0 0029 5.414a4.382 4.382 0 00-1.293-3.121A4.382 4.382 0 0024.586 1h-8.05c-2.547 0-4.946.997-6.82 2.871C8.015 5.571 7 8.236 7 11c0 3.581 2.104 5.735 3.025 6.508a5.783 5.783 0 001.682 3.614l.293.292v4.598c-2.26.059-4.422.775-6.267 2.093A11.322 11.322 0 001 37.301V46c0 3.409 1.559 6.46 4 8.479V63h24v-6h2.687a8.94 8.94 0 006.364-2.636l.95-.95V63h24V37.854a8.885 8.885 0 00-.935-3.959 8.922 8.922 0 00-3.96-3.96L57 29.382v-3.764zM39.906 12.044A5.055 5.055 0 0138 8.079 5.084 5.084 0 0143.079 3h4.608c1.87 0 3.627.728 4.95 2.05L55.586 8H56c2.757 0 5 2.243 5 5v5.292a4.972 4.972 0 01-2.764 4.472l-1.996.998a5.435 5.435 0 01-1.017-2.057 7.906 7.906 0 01-.198-1.17C55.779 19.99 57 18.828 57 17c0-2.206-1.794-4-4-4h-.136c-.197-.693-.606-1.316-1.224-1.861C50.533 10.164 48.655 9 46 9c-2.21 0-4.357 1.061-4.447 1.105l-.438.219-.096.479c-.128.64-.239 1.262-.337 1.862zM48.382 34h-1.386l.003-1.18 2.193-.438zm-1.097 11.454l-1.254-2.257.857-7.197h1.31l1.429 6.43a18.882 18.882 0 01-2.342 3.024zm3.772-5.805l-1.004-4.519 1.623-3.245 1.852-.37-1.73 6.054c-.204.713-.46 1.403-.741 2.08zM50 26.62l3.196-.639-.393-1.961-4.582.917a3.331 3.331 0 01-.647.063h-.271a3.291 3.291 0 01-1.832-.555A3.295 3.295 0 0144 21.697V19h-1.971c.062-1.398.253-4.125.853-7.297C43.524 11.44 44.781 11 46 11c2.031 0 3.469.892 4.318 1.64.472.416.682.835.682 1.36v1h2c1.103 0 2 .897 2 2 0 1.342-1.438 2.101-1.447 2.105l-.553.277V20c0 .683.094 1.416.28 2.178a7.477 7.477 0 001.72 3.22v3.782l-5 1zm-5 8.121v.2l-.628 5.271-1.351-2.432A17.916 17.916 0 0145 34.741zm-12 5.074v5.771l-.535.535a3.023 3.023 0 01-2.123.879H29v-6h-2v6h-8v-2.802l6.356-15.437A11.817 11.817 0 0133 39.815zm-4 12.293a2.866 2.866 0 01-.847 2.043 2.866 2.866 0 01-2.026.849H25v.001h-2V49h3.006c1.648.003 2.991 1.354 2.994 3.108zM19.382 28l-1 2h-1.764l-1-2zm1.282 6.902l-.624-3.746 1.569-3.137c.61.022 1.215.084 1.808.198zM13.382 28l1.578 3.156-.497 2.98-2.862-6.082c.234-.018.464-.054.7-.054zm3.465 4h1.305l1.068 6.408-1.282 3.114-1.978-4.204zM25 17.07a8.967 8.967 0 01-.646 3.351 4.083 4.083 0 01-3.81 2.58c-.813 0-1.6-.238-2.276-.689l-1.714-1.143-1.109 1.664 1.714 1.143a6.093 6.093 0 001.84.814V26h-5v-5.414l-.879-.879A3.807 3.807 0 0112 17c0-.551.449-1 1-1h1v-3c0-1.654 1.346-3 3-3h5c1.654 0 3 1.346 3 3zm-14.428-1.828A6.441 6.441 0 019 11c0-2.245.796-4.382 2.194-5.78A7.513 7.513 0 0116.536 3h8.05c.635 0 1.258.258 1.707.707S27 4.779 27 5.414a5.723 5.723 0 01-1.598 3.944A4.966 4.966 0 0022 8h-5c-2.757 0-5 2.243-5 5v1.171a3.011 3.011 0 00-1.428 1.071zM3 46v-8.699a9.319 9.319 0 013.895-7.569 9.287 9.287 0 012.667-1.315L17 44.224V47h-6v-6H9v6a2 2 0 001.994 2H21v6.001L12 55c-4.962 0-9-4.037-9-9zm24 15H7v-5.214A10.916 10.916 0 0012 57l14.111.001h.001l.015-.001H27zm9.636-8.05a6.954 6.954 0 01-4.95 2.05H30.03c.622-.841.972-1.855.97-2.989s-.395-2.17-1.032-3.011h.374a5.04 5.04 0 003.538-1.465l5.551-5.551A19.876 19.876 0 0039 46.028v4.558zM41 46.028c0-2.037.357-4.039 1.019-5.934l3.763 6.773c-.137.116-.266.239-.407.352L45 47.52V61h-4zm16.211-14.304a6.9 6.9 0 013.065 3.065c.474.946.724 2.006.724 3.065V61h-6V45h-2v16h-6V48.474a20.948 20.948 0 006.721-10.355l2.013-7.045.126-.025z"/><circle cx="50" cy="56" r="1"/><circle cx="50" cy="52" r="1"/></symbol><symbol id="icon-calendar" viewBox="0 0 128 128"><path d="M120.25 23.507h-5.625v-9.133a5.756 5.756 0 00-5.75-5.75h-4.034a5.756 5.756 0 00-5.75 5.75v9.133H86.053v-9.133a5.756 5.756 0 00-5.75-5.75h-4.034a5.757 5.757 0 00-5.75 5.75v9.133H57.481v-9.133a5.757 5.757 0 00-5.75-5.75H47.7a5.757 5.757 0 00-5.75 5.75v9.133H28.909v-9.133a5.757 5.757 0 00-5.75-5.75h-4.034a5.757 5.757 0 00-5.75 5.75v9.133H7.75A7.759 7.759 0 000 31.257v81.369a6.758 6.758 0 006.75 6.75h114.5a6.758 6.758 0 006.75-6.75V31.257a7.759 7.759 0 00-7.75-7.75zm-17.659-9.133a2.253 2.253 0 012.25-2.25h4.034a2.253 2.253 0 012.25 2.25v9.133h-8.534zm-28.572 0a2.253 2.253 0 012.25-2.25H80.3a2.253 2.253 0 012.25 2.25v9.133h-8.531zm-28.572 0a2.253 2.253 0 012.25-2.25h4.034a2.253 2.253 0 012.25 2.25v9.133h-8.534zm-28.572 0a2.253 2.253 0 012.25-2.25h4.034a2.253 2.253 0 012.25 2.25v9.133h-8.534zM3.5 31.257a4.255 4.255 0 014.25-4.25h112.5a4.254 4.254 0 014.25 4.25v11.378H3.5zm121 81.369a3.254 3.254 0 01-3.25 3.25H6.75a3.254 3.254 0 01-3.25-3.25V46.135h121z"/><path d="M13.75 68.063h10.736a3.755 3.755 0 003.75-3.75v-7.928a3.754 3.754 0 00-3.75-3.75H13.75a3.754 3.754 0 00-3.75 3.75v7.928a3.755 3.755 0 003.75 3.75zm-.25-11.678a.25.25 0 01.25-.25h10.736a.25.25 0 01.25.25v7.928a.251.251 0 01-.25.25H13.75a.251.251 0 01-.25-.25zm30.171 11.678h10.736a3.755 3.755 0 003.75-3.75v-7.928a3.754 3.754 0 00-3.75-3.75H43.671a3.754 3.754 0 00-3.75 3.75v7.928a3.755 3.755 0 003.75 3.75zm-.25-11.678a.251.251 0 01.25-.25h10.736a.25.25 0 01.25.25v7.928a.251.251 0 01-.25.25H43.671a.251.251 0 01-.25-.25zm30.172 11.678h10.736a3.755 3.755 0 003.75-3.75v-7.928a3.755 3.755 0 00-3.75-3.75H73.593a3.754 3.754 0 00-3.75 3.75v7.928a3.755 3.755 0 003.75 3.75zm-.25-11.678a.25.25 0 01.25-.25h10.736a.25.25 0 01.25.25v7.928a.251.251 0 01-.25.25H73.593a.251.251 0 01-.25-.25zm30.171 11.678h10.736a3.755 3.755 0 003.75-3.75v-7.928a3.755 3.755 0 00-3.75-3.75h-10.736a3.754 3.754 0 00-3.75 3.75v7.928a3.755 3.755 0 003.75 3.75zm-.25-11.678a.25.25 0 01.25-.25h10.736a.25.25 0 01.25.25v7.928a.251.251 0 01-.25.25h-10.736a.251.251 0 01-.25-.25zM13.75 88.719h10.736a3.755 3.755 0 003.75-3.75v-7.928a3.755 3.755 0 00-3.75-3.75H13.75a3.755 3.755 0 00-3.75 3.75v7.928a3.755 3.755 0 003.75 3.75zm-.25-11.678a.25.25 0 01.25-.25h10.736a.25.25 0 01.25.25v7.928a.251.251 0 01-.25.25H13.75a.251.251 0 01-.25-.25zm30.171 11.678h10.736a3.755 3.755 0 003.75-3.75v-7.928a3.755 3.755 0 00-3.75-3.75H43.671a3.755 3.755 0 00-3.75 3.75v7.928a3.755 3.755 0 003.75 3.75zm-.25-11.678a.251.251 0 01.25-.25h10.736a.25.25 0 01.25.25v7.928a.251.251 0 01-.25.25H43.671a.251.251 0 01-.25-.25zm30.172 11.678h10.736a3.755 3.755 0 003.75-3.75v-7.928a3.755 3.755 0 00-3.75-3.75H73.593a3.755 3.755 0 00-3.75 3.75v7.928a3.755 3.755 0 003.75 3.75zm-.25-11.678a.25.25 0 01.25-.25h10.736a.25.25 0 01.25.25v7.928a.251.251 0 01-.25.25H73.593a.251.251 0 01-.25-.25zm30.171 11.678h10.736a3.755 3.755 0 003.75-3.75v-7.928a3.755 3.755 0 00-3.75-3.75h-10.736a3.755 3.755 0 00-3.75 3.75v7.928a3.755 3.755 0 003.75 3.75zm-.25-11.678a.25.25 0 01.25-.25h10.736a.25.25 0 01.25.25v7.928a.251.251 0 01-.25.25h-10.736a.251.251 0 01-.25-.25zM13.75 109.376h10.736a3.755 3.755 0 003.75-3.75V97.7a3.755 3.755 0 00-3.75-3.75H13.75A3.755 3.755 0 0010 97.7v7.928a3.755 3.755 0 003.75 3.748zM13.5 97.7a.25.25 0 01.25-.25h10.736a.25.25 0 01.25.25v7.928a.25.25 0 01-.25.25H13.75a.25.25 0 01-.25-.25zm30.171 11.676h10.736a3.755 3.755 0 003.75-3.75V97.7a3.755 3.755 0 00-3.75-3.75H43.671a3.755 3.755 0 00-3.75 3.75v7.928a3.755 3.755 0 003.75 3.748zm-.25-11.676a.251.251 0 01.25-.25h10.736a.25.25 0 01.25.25v7.928a.25.25 0 01-.25.25H43.671a.251.251 0 01-.25-.25zm43.395-2.795a1.75 1.75 0 00-2.453.328l-7.3 9.544-4.1-5.177a1.749 1.749 0 10-2.742 2.173l5.5 6.94a1.749 1.749 0 001.371.663h.015a1.753 1.753 0 001.375-.687l8.66-11.331a1.749 1.749 0 00-.326-2.453zm29.921 0a1.75 1.75 0 00-2.453.328l-7.294 9.544-4.1-5.177a1.749 1.749 0 10-2.742 2.173l5.5 6.94a1.751 1.751 0 001.372.663h.015a1.753 1.753 0 001.375-.687l8.659-11.331a1.75 1.75 0 00-.332-2.453z"/></symbol><symbol id="icon-company" viewBox="0 0 512 512"><path d="M480 376v-88h-16v88h-48v-32h-16v32h-48V96h112v176h16V88a8 8 0 00-8-8h-8V56a8 8 0 00-8-8h-40V16h-16v32h-40a8 8 0 00-8 8v24h-8a8 8 0 00-8 8v48h-40a7.999 7.999 0 00-5.657 2.343l-64 64A7.999 7.999 0 00224 208v46.606l-42.794-36.68a8.002 8.002 0 00-10.412 0l-56 48A8 8 0 00112 272v33.87l-27.884-16.73a7.999 7.999 0 00-8.232 0l-40 24A8 8 0 0032 320v56H16v16h42.228a240.048 240.048 0 00395.544 0H496v-16zM368 64h80v16h-80zm-23.72 328a282.945 282.945 0 01-24.436 40H192.155a282.945 282.945 0 01-24.436-40zM240 211.314L299.313 152H336v224h-40v-32h-16v32h-40zM128 275.68l48-41.143 48 41.143V376h-40v-32h-16v32h-40zm-80 48.85l32-19.2 32 19.2V376H88v-32H72v32H48zM77.99 392h71.94a300.507 300.507 0 0022.682 40h-55.246a224.526 224.526 0 01-39.376-40zm106.195 56a284.742 284.742 0 0023.59 26.78 223.275 223.275 0 01-67.26-26.78zm52.052 31.134A260.788 260.788 0 01204.804 448h102.392a260.788 260.788 0 01-31.433 31.134q-9.802.862-19.763.866-9.953 0-19.764-.866zM327.815 448h43.67a223.275 223.275 0 01-67.26 26.78 284.742 284.742 0 0023.59-26.78zm66.82-16h-55.247a300.507 300.507 0 0022.682-40h71.94a224.526 224.526 0 01-39.376 40z"/><path d="M144 288h16v40h-16zm48 0h16v40h-16zm64 0h16v40h-16zm48 0h16v40h-16zm-48-56h16v40h-16zm48 0h16v40h-16zm64 0h16v40h-16zm32 0h16v40h-16zm-32-56h16v40h-16zm32 0h16v40h-16zm-32-56h16v40h-16zm32 0h16v40h-16zm32 112h16v40h-16zm-64 56h16v40h-16zm32 0h16v40h-16zm32 0h16v40h-16zm0-112h16v40h-16zm0-56h16v40h-16zm-128 56h16v40h-16zM20.811 271.337a8.001 8.001 0 008.647-1.488L144.3 162.664l42.579 35.482a8 8 0 0011-.72l91.367-98.981 18.317 12.21a8 8 0 0012.398-5.86l8-80a8 8 0 00-10.26-8.458l-80 24a8 8 0 00-2.138 14.32l16.302 10.868-60.66 67.4-42.083-35.07a8 8 0 00-10.58.297l-42.857 40 10.917 11.697 37.698-35.185 42.579 35.482a8.001 8.001 0 0011.067-.794l72-80a8 8 0 00-1.508-12.008l-9.851-6.568 52.264-15.679-5.487 54.864-12.926-8.617a7.999 7.999 0 00-10.316 1.23l-90.842 98.412-42.158-35.132a8 8 0 00-10.58.297L32 245.59v-26.113l61.458-57.362-10.917-11.697-64 59.733A8 8 0 0016 216v48a8.001 8.001 0 004.811 7.337z"/></symbol><symbol id="icon-contract" viewBox="0 0 512 512"><path d="M373.147 20.122L77.707.361c-9.631-.638-17.984 6.665-18.629 16.293l-2.311 34.557H17.5c-9.649 0-17.5 7.851-17.5 17.5v425.466c0 9.649 7.851 17.5 17.5 17.5h226.141a7.58 7.58 0 005.292-2.185l34.138-33.987c.347.074.701.133 1.065.157l58.282 3.898c9.302.614 18.005-6.952 18.629-16.293L389.44 38.752c.639-9.528-6.766-17.993-16.293-18.63zM251.141 486.024v-52.1c0-1.378 1.122-2.5 2.5-2.5h51.9zm94.939-23.757c-.244 1.51-1.131 2.286-2.66 2.327l-46.28-3.096 31.752-31.611a7.498 7.498 0 002.209-5.315V68.712c0-9.649-7.851-17.5-17.5-17.5h-77.993c-9.697 0-9.697 15 0 15h77.993c1.379 0 2.5 1.122 2.5 2.5v347.712h-62.46c-9.649 0-17.5 7.851-17.5 17.5v62.753H17.5a2.503 2.503 0 01-2.5-2.5V68.712c0-1.378 1.122-2.5 2.5-2.5h178.168c9.697 0 9.697-15 0-15H71.8l2.244-33.556c.244-1.511 1.131-2.286 2.661-2.327l295.44 19.76c1.511.244 2.287 1.131 2.328 2.661z"/><path d="M267.827 237.047H63.274a7.5 7.5 0 000 15h204.553c4.143 0 7.5-3.358 7.5-7.5s-3.357-7.5-7.5-7.5zm0 52.285H63.274a7.5 7.5 0 000 15h204.553c4.143 0 7.5-3.358 7.5-7.5s-3.357-7.5-7.5-7.5zm-212.053-97.07a7.5 7.5 0 007.5 7.5h204.553c4.143 0 7.5-3.358 7.5-7.5s-3.357-7.5-7.5-7.5H63.274a7.5 7.5 0 00-7.5 7.5zm36.033-52.285a7.5 7.5 0 007.5 7.5h132.487a7.5 7.5 0 000-15H99.307a7.5 7.5 0 00-7.5 7.5zm102.948 298.81c-13.489.036-26.978.065-40.467.086-4.534.007-9.067.013-13.6.016-8.215.006-13.75-1.643-15.59-10.679-1.556-7.64-12.364-6.613-14.464 0-5.19 16.337-13.774 9.936-18.582-1.053-4.797-10.963-6.027-23.233-8.122-34.9-1.54-8.573-14.506-6.17-14.732 1.994-.298 10.751-1.302 21.331-4.031 31.758-2.815 10.758-7.034 21.097-11.222 31.376-3.651 8.961 10.867 12.816 14.464 3.988 3.711-9.108 7.427-18.266 10.193-27.714 5.14 12.36 15.774 26.34 30.927 18.101 2.819-1.533 5.452-3.712 7.763-6.253 7.88 9.106 19.609 8.388 30.584 8.375 15.627-.02 31.254-.054 46.881-.095 9.649-.025 9.667-15.025-.002-15zm311.177-192.348c-3.897-3.878-9.255-5.867-14.695-6.014l-5.668.028v-10.719c0-6.529-3.878-13.427-9.433-16.862v-15.098c0-31.069-48.372-30.934-48.372.146v15.1c-5.659 3.498-9.455 9.741-9.455 16.852v10.982c-24.966 1.7-25.037 39.745.028 41.232.16 33.575.152 66.6-.028 100.737-.049 9.414 14.949 9.966 15 .079.18-34.166.188-67.22.029-100.823l37.211-.185s-.048 110.848-.048 160.784c0 24.338-37.219 24.5-37.219-.253l.013-13.677c.585-9.68-14.387-10.583-14.973-.904v12.834c0 11 3.402 20.316 9.988 26.869.586 15.693 7.198 30.878 18.369 41.956 3.205 3.18 7.642 2.208 10.744-.182 11.365-11.385 17.769-26.394 18.169-42.414 4.951-4.931 9.908-9.896 9.908-26.896l.006-68.351c12.97 3.689 26.494-6.348 26.494-19.946v-90.672a20.461 20.461 0 00-6.068-14.603zm-72.623-5.727v-10.841c0-2.219 1.523-4.08 3.573-4.633l30.025-.149c.84.208 1.615.605 2.243 1.231a4.785 4.785 0 011.419 3.414v10.794zm18.671-52c4.604 0 9.155 4.514 9.155 9.062v12.166l-18.372.091V197.92c.001-5.053 4.133-9.183 9.217-9.208zm-.011 303.901a47.846 47.846 0 01-7.417-16.406c2.322.503 4.674.765 7.027.765 2.627 0 5.253-.326 7.839-.957a46.767 46.767 0 01-7.449 16.598zM497 351.714c0 7.101-11.452 7.66-11.452.131 0 0 .013-70.974.021-77.48.005-4.196-3.483-7.509-7.558-7.509l-58.389.29c-7.242 0-7.073-11.331.074-11.366l71.615-.355c3.463.295 5.359 2.168 5.688 5.617v90.672z"/></symbol><symbol id="icon-email" viewBox="0 0 512 512"><path d="M339.392 258.624L512 367.744V144.896zM0 144.896v222.848l172.608-109.12zM480 80H32C16.032 80 3.36 91.904.96 107.232L256 275.264l255.04-168.032C508.64 91.904 495.968 80 480 80zM310.08 277.952l-45.28 29.824a15.983 15.983 0 01-8.8 2.624c-3.072 0-6.112-.864-8.8-2.624l-45.28-29.856L1.024 404.992C3.488 420.192 16.096 432 32 432h448c15.904 0 28.512-11.808 30.976-27.008L310.08 277.952z"/></symbol><symbol id="icon-enter" viewBox="0 0 512 512"><path d="M465.535.32C465.004.277 464.555 0 464 0H234.668c-35.285 0-64 28.715-64 64v21.332c0 11.777 9.555 21.336 21.332 21.336s21.332-9.559 21.332-21.336V64c0-11.754 9.578-21.332 21.336-21.332h99.39l-6.507 2.176c-17.278 5.972-28.883 22.25-28.883 40.488v320h-64c-11.758 0-21.336-9.578-21.336-21.332v-42.668c0-11.773-9.555-21.332-21.332-21.332s-21.332 9.559-21.332 21.332V384c0 35.285 28.715 64 64 64h64v21.332c0 23.531 19.133 42.668 42.664 42.668 4.566 0 8.898-.66 13.59-2.113l128.172-42.73c17.3-5.973 28.906-22.25 28.906-40.489v-384C512 17.793 490.559-1.707 465.535.32zm0 0"/><path d="M228.414 198.25l-85.332-85.332a21.327 21.327 0 00-23.254-4.629A21.364 21.364 0 00106.668 128v64H21.332C9.559 192 0 201.559 0 213.332c0 11.777 9.559 21.336 21.332 21.336h85.336v64a21.368 21.368 0 0013.16 19.71 21.334 21.334 0 0023.254-4.628l85.332-85.336c8.344-8.34 8.344-21.82 0-30.164zm0 0"/></symbol><symbol id="icon-facebook" viewBox="0 0 24 24"><path d="M15.997 3.985h2.191V.169C17.81.117 16.51 0 14.996 0c-3.159 0-5.323 1.987-5.323 5.639V9H6.187v4.266h3.486V24h4.274V13.267h3.345l.531-4.266h-3.877V6.062c.001-1.233.333-2.077 2.051-2.077z"/></symbol><symbol id="icon-gift-box" viewBox="-17 0 483 483.026"><path d="M194.492 109.508a7.996 7.996 0 006.41-3.215 7.989 7.989 0 001.262-7.059 141.013 141.013 0 00-29.055-53.062 44.533 44.533 0 00-42.273-12.938 7.998 7.998 0 00-4.613 4.618 20.042 20.042 0 00-.977 3.687 30.64 30.64 0 00-.402 4.512v.129a48.293 48.293 0 0014.304 33.941 141.072 141.072 0 0053.04 29.035c.75.223 1.523.344 2.304.352zm-44-40.715a33.063 33.063 0 01-7.328-11.16v-.078a34.768 34.768 0 01-.918-2.633c-.137-.465-.234-.902-.351-1.36-.122-.457-.227-.8-.305-1.199-.082-.402-.098-.562-.153-.847a30.476 30.476 0 01-.488-3.618 33.069 33.069 0 0120.895 9.602 108.71 108.71 0 0118.969 30.328 108.7 108.7 0 01-30.36-19.035zm0 0"/><path d="M440.012 115.027H316.523a111.976 111.976 0 0014.985-12.265c28.617-28.703 29.555-72.223 11.273-90.504s-61.785-17.36-90.52 11.289a156.964 156.964 0 00-28.25 43.351 156.766 156.766 0 00-28.269-43.375C167.04-5.094 123.523-6.03 105.238 12.25c-18.289 18.281-17.343 61.8 11.278 90.512a112.472 112.472 0 0014.984 12.265H8.012a8 8 0 00-8 8v80a8 8 0 008 8h16v232c.027 22.078 17.922 39.973 40 40h320c22.082-.027 39.976-17.922 40-40v-232h16a8 8 0 008-8v-80a8 8 0 00-8-8zm-176.43-80.175c22.992-22.922 56.527-22.657 67.895-11.29 11.367 11.368 11.64 44.887-11.282 67.887a133.973 133.973 0 01-35.496 23.578h-47.804v-.52c0-1.823-.137-3.671-.313-5.53-.066-.614-.137-1.223-.207-1.848a79.253 79.253 0 00-.684-4.59 97.68 97.68 0 00-.27-1.602c-.382-1.992-.8-3.953-1.28-5.847-.063-.274-.137-.512-.2-.8-.425-1.657-.863-3.2-1.312-4.798-.063-.219-.121-.457-.184-.676a152.526 152.526 0 0131.137-53.964zm-7.57 160.175h-64v-64h64zM127.836 91.457c-22.926-23-22.656-56.52-11.285-67.894 11.367-11.375 44.887-11.641 67.87 11.265a153.67 153.67 0 0132 56.39c.903 2.81 1.599 5.505 2.255 8.122.183.75.336 1.476.496 2.215a78.264 78.264 0 011.043 5.601c.086.606.2 1.23.27 1.82.253 1.997.39 4.008.41 6.02h-57.57a134.08 134.08 0 01-35.49-23.539zm-111.824 39.57h160v64h-160zm24 312v-232h152v256h-128c-13.254 0-24-10.746-24-24zm168 24v-256h32v256zm200-24c0 13.254-10.742 24-24 24h-128v-256h152zm24-248h-160v-64h160zm0 0"/><path d="M253.508 109.531a8 8 0 002.273-.328 140.553 140.553 0 0053.078-29.09 45.283 45.283 0 0012.961-42.297 7.951 7.951 0 00-4.597-4.597 45.283 45.283 0 00-42.297 12.96 140.66 140.66 0 00-29.09 53.079 8.001 8.001 0 007.672 10.273zm32.73-52.039a33.183 33.183 0 0120.91-9.601 33.149 33.149 0 01-9.597 20.918 108.142 108.142 0 01-30.403 19.074 108.077 108.077 0 0119.09-30.39zm0 0"/></symbol><symbol id="icon-guarantee" viewBox="-3 0 512 512"><path d="M425.328 319.285c21.395-32.492 33.867-71.355 33.867-113.086C459.195 92.5 366.691 0 252.992 0S46.793 92.5 46.793 206.2c0 41.73 12.473 80.593 33.863 113.085L0 436.915l92.293-17.208L109.503 512l76.063-110.934c21.141 7.336 43.825 11.332 67.426 11.332 23.606 0 46.29-3.996 67.426-11.332L396.484 512l17.207-92.293 92.293 17.207zM125.813 434.852l-9.387-50.344-50.34 9.39 33.969-49.543a207.545 207.545 0 0057.312 44.485zM76.969 206.199c0-97.058 78.965-176.023 176.023-176.023 97.063 0 176.028 78.965 176.028 176.023 0 97.063-78.965 176.028-176.028 176.028-97.058 0-176.023-78.965-176.023-176.028zm312.59 178.309l-9.387 50.344-31.55-46.012a207.545 207.545 0 0057.312-44.485l33.968 49.54zm0 0"/><path d="M216.234 251.484l-49.062-49.058-21.336 21.336 70.398 70.398 143.918-143.914-21.336-21.336zm0 0"/></symbol><symbol id="icon-handshake" viewBox="0 0 479.995 479.995"><path d="M466.35 218.344l-42.344 42.344L355.318 192l42.344-42.344-11.312-11.312-48 48L300.694 224H179.318l-37.656-37.656-48-48-11.312 11.312L124.694 192l-68.688 68.688-42.344-42.344L2.35 229.656l48 48 40 40 42.4 42.176-6.4 6.4c-9.707 9.6-9.793 25.252-.193 34.959l.193.193a24.912 24.912 0 0016.688 7.2 24.53 24.53 0 007.312 16.584 24.946 24.946 0 0016.688 7.2 24.535 24.535 0 007.368 16.592 24.946 24.946 0 0016.688 7.2 24.53 24.53 0 007.312 16.584c9.772 9.654 25.492 9.654 35.264 0l6.336-6.344 6.336 6.296c9.763 9.745 25.576 9.731 35.321-.032a24.976 24.976 0 007.279-16.624 24.943 24.943 0 0016.696-7.248 24.696 24.696 0 007.304-16.648 24.952 24.952 0 0016.696-7.256 24.696 24.696 0 007.304-16.648c13.733-.474 24.481-11.991 24.006-25.724a24.881 24.881 0 00-7.31-16.772l-6.064-6.04 42.072-42.072 40-40 48-48-11.296-11.288zM67.318 272l68.688-68.688L164.694 232l-68.688 68.688L67.318 272zm83.088 118.008a9.056 9.056 0 01-12.8 0 8.728 8.728 0 010-12.432l6.504-6.448 12.696 12.544-6.4 6.336zm23.896 23.816a9.072 9.072 0 01-12.696-.016 8.744 8.744 0 01-.074-12.366l.074-.074 6.472-6.4 12.624 12.544-6.4 6.312zm24.104 23.776a9.072 9.072 0 01-12.8 0 8.728 8.728 0 010-12.432l6.448-6.4 12.616 12.544-6.264 6.288zm24 23.792a9.072 9.072 0 01-12.736 0 8.728 8.728 0 010-12.432l6.4-6.36 12.616 12.544-6.28 6.248zm120.012-71.764l-.044.044h.032a9.016 9.016 0 01-12.704 0l-12-11.952a8.002 8.002 0 00-11.296 11.336l12 11.952a8.856 8.856 0 01.044 12.524l-.044.044a9.016 9.016 0 01-12.704 0l-12-11.952a8.002 8.002 0 00-11.296 11.336l12 11.952a8.856 8.856 0 01.044 12.524l-.044.044a9.016 9.016 0 01-12.704 0l-12-11.952a8.002 8.002 0 00-11.296 11.336l12 11.952a8.856 8.856 0 01.044 12.524l-.044.044a9.031 9.031 0 01-12.712 0L107.334 312l72-72h25.688l-58.72 60.096a8 8 0 00.064 11.248 56.242 56.242 0 0037.304 16.608 50.002 50.002 0 0038.008-14.584c.354-.35.672-.733.952-1.144l2.896-4.248a72.591 72.591 0 0061.232 13.736l55.616 55.392a8.857 8.857 0 01.044 12.524zm-6.116-41.188l-33.56-33.424 6.064-4.616c.285-.222.552-.465.8-.728l8-8-11.312-11.312-7.608 7.608-6.92 5.216c-21.36 9.137-46.148 4.032-62.16-12.8a8 8 0 00-12.264 1.144l-7.56 11.064A34.518 34.518 0 01184.358 312a40.342 40.342 0 01-20.56-6.896L227.374 240h73.32l72 72-36.392 36.44zm47.704-47.752L315.318 232l28.688-28.688L412.694 272l-28.688 28.688z"/><path d="M88.006 264h16v16h-16zm288 0h16v16h-16zm-120-120c35.33-.04 63.96-28.67 64-64a8 8 0 00-8-8h-16a63.804 63.804 0 00-48 21.808V64h8c30.913-.035 55.965-25.087 56-56a8 8 0 00-8-8h-16a56 56 0 00-48 27.304 56 56 0 00-48-27.304h-16a8 8 0 00-8 8c.035 30.913 25.087 55.965 56 56h8v29.808a63.804 63.804 0 00-48-21.808h-16a8 8 0 00-8 8c.04 35.33 28.67 63.96 64 64h8v12.688L180.694 208h22.624l36.688-36.688L276.694 208h22.624l-51.312-51.312V144h8zm40-56h7.336c-3.935 23.08-23.923 39.971-47.336 40h-7.336c3.934-23.08 23.922-39.971 47.336-40zm-8-72h7.2c-3.825 18.613-20.198 31.979-39.2 32h-7.2c3.824-18.613 20.198-31.979 39.2-32zm-64 32c-19.002-.021-35.375-13.387-39.2-32h7.2c19.002.021 35.375 13.387 39.2 32h-7.2zm0 80c-23.413-.029-43.401-16.92-47.336-40h7.336c23.413.029 43.401 16.92 47.336 40h-7.336z"/></symbol><symbol id="icon-instagram" viewBox="0 0 511 511.9"><path d="M510.95 150.5c-1.2-27.2-5.598-45.898-11.9-62.102-6.5-17.199-16.5-32.597-29.6-45.398-12.802-13-28.302-23.102-45.302-29.5-16.296-6.3-34.898-10.7-62.097-11.898C334.648.3 325.949 0 256.449 0s-78.199.3-105.5 1.5c-27.199 1.2-45.898 5.602-62.097 11.898-17.204 6.5-32.602 16.5-45.403 29.602-13 12.8-23.097 28.3-29.5 45.3-6.3 16.302-10.699 34.9-11.898 62.098C.75 177.801.449 186.5.449 256s.301 78.2 1.5 105.5c1.2 27.2 5.602 45.898 11.903 62.102 6.5 17.199 16.597 32.597 29.597 45.398 12.801 13 28.301 23.102 45.301 29.5 16.3 6.3 34.898 10.7 62.102 11.898 27.296 1.204 36 1.5 105.5 1.5s78.199-.296 105.5-1.5c27.199-1.199 45.898-5.597 62.097-11.898a130.934 130.934 0 0074.903-74.898c6.296-16.301 10.699-34.903 11.898-62.102 1.2-27.3 1.5-36 1.5-105.5s-.102-78.2-1.3-105.5zm-46.098 209c-1.102 25-5.301 38.5-8.801 47.5-8.602 22.3-26.301 40-48.602 48.602-9 3.5-22.597 7.699-47.5 8.796-27 1.204-35.097 1.5-103.398 1.5s-76.5-.296-103.403-1.5c-25-1.097-38.5-5.296-47.5-8.796C94.551 451.5 84.45 445 76.25 436.5c-8.5-8.3-15-18.3-19.102-29.398-3.5-9-7.699-22.602-8.796-47.5-1.204-27-1.5-35.102-1.5-103.403s.296-76.5 1.5-103.398c1.097-25 5.296-38.5 8.796-47.5C61.25 94.199 67.75 84.1 76.352 75.898c8.296-8.5 18.296-15 29.398-19.097 9-3.5 22.602-7.7 47.5-8.801 27-1.2 35.102-1.5 103.398-1.5 68.403 0 76.5.3 103.403 1.5 25 1.102 38.5 5.3 47.5 8.8 11.097 4.098 21.199 10.598 29.398 19.098 8.5 8.301 15 18.301 19.102 29.403 3.5 9 7.699 22.597 8.8 47.5 1.2 27 1.5 35.097 1.5 103.398s-.3 76.301-1.5 103.301zm0 0"/><path d="M256.45 124.5c-72.598 0-131.5 58.898-131.5 131.5s58.902 131.5 131.5 131.5c72.6 0 131.5-58.898 131.5-131.5s-58.9-131.5-131.5-131.5zm0 216.8c-47.098 0-85.302-38.198-85.302-85.3s38.204-85.3 85.301-85.3c47.102 0 85.301 38.198 85.301 85.3s-38.2 85.3-85.3 85.3zm167.402-222c0 16.954-13.747 30.7-30.704 30.7-16.953 0-30.699-13.746-30.699-30.7 0-16.956 13.746-30.698 30.7-30.698 16.956 0 30.703 13.742 30.703 30.699zm0 0"/></symbol><symbol id="icon-key" viewBox="0 0 512 512"><path d="M334.974 0c-95.419 0-173.049 77.63-173.049 173.049 0 21.213 3.769 41.827 11.211 61.403L7.672 399.928a12.613 12.613 0 00-3.694 8.917v90.544c0 6.965 5.646 12.611 12.611 12.611h74.616a12.61 12.61 0 008.91-3.686l25.145-25.107a12.61 12.61 0 003.701-8.925v-30.876h30.837c6.965 0 12.611-5.646 12.611-12.611v-12.36h12.361c6.964 0 12.611-5.646 12.611-12.611v-27.136h27.136c3.344 0 6.551-1.329 8.917-3.694l40.121-40.121c19.579 7.449 40.196 11.223 61.417 11.223 95.419 0 173.049-77.63 173.049-173.049C508.022 77.63 430.393 0 334.974 0zm0 320.874c-20.642 0-40.606-4.169-59.339-12.393-4.844-2.126-10.299-.956-13.871 2.525-.039.037-.077.067-.115.106l-42.354 42.354h-34.523c-6.965 0-12.611 5.646-12.611 12.611v27.136H159.8c-6.964 0-12.611 5.646-12.611 12.611v12.36h-30.838c-6.964 0-12.611 5.646-12.611 12.611v38.257l-17.753 17.725H29.202v-17.821l154.141-154.14c4.433-4.433 4.433-11.619 0-16.051s-11.617-4.434-16.053 0L29.202 436.854V414.07l167.696-167.708c.038-.038.067-.073.102-.11 3.482-3.569 4.656-9.024 2.53-13.872-8.216-18.732-12.38-38.695-12.38-59.33 0-81.512 66.315-147.827 147.827-147.827S482.802 91.537 482.802 173.05c-.002 81.51-66.318 147.824-147.828 147.824z"/><path d="M387.638 73.144c-26.047 0-47.237 21.19-47.237 47.237s21.19 47.237 47.237 47.237 47.237-21.19 47.237-47.237-21.189-47.237-47.237-47.237zm0 69.252c-12.139 0-22.015-9.876-22.015-22.015s9.876-22.015 22.015-22.015 22.015 9.876 22.015 22.015-9.876 22.015-22.015 22.015z"/></symbol><symbol id="icon-left-arrow" viewBox="0 0 492 492"><path d="M198.608 246.104L382.664 62.04c5.068-5.056 7.856-11.816 7.856-19.024 0-7.212-2.788-13.968-7.856-19.032l-16.128-16.12C361.476 2.792 354.712 0 347.504 0s-13.964 2.792-19.028 7.864L109.328 227.008c-5.084 5.08-7.868 11.868-7.848 19.084-.02 7.248 2.76 14.028 7.848 19.112l218.944 218.932c5.064 5.072 11.82 7.864 19.032 7.864 7.208 0 13.964-2.792 19.032-7.864l16.124-16.12c10.492-10.492 10.492-27.572 0-38.06L198.608 246.104z"/></symbol><symbol id="icon-offer" viewBox="0 -1 429.69 429"><path d="M127.273 185.078l-.015.274c-1.059 18.543 9.328 35.914 26.469 44.242l.175.086a31.181 31.181 0 0114.121 13.582l.07.129c8.637 16.445 26.5 26.414 45.544 25.414l.289-.016a33.163 33.163 0 0119.605 5.098 49.709 49.709 0 0052.719 0 33.163 33.163 0 0119.605-5.098l.29.016c19.011 1.007 36.898-8.97 45.554-25.442l.043-.09a31.239 31.239 0 0114.164-13.609l.14-.07c17.142-8.332 27.532-25.7 26.47-44.246l-.016-.258a29.673 29.673 0 015.164-18.39c10.66-15.548 10.66-36.048.004-51.598a29.671 29.671 0 01-5.168-18.383l.016-.274c1.062-18.547-9.329-35.914-26.485-44.25l-.156-.078a31.153 31.153 0 01-14.102-13.535l-.09-.176c-8.64-16.445-26.527-26.41-45.538-25.414l-.293.016a33.14 33.14 0 01-19.598-5.098h-.008a49.709 49.709 0 00-52.719 0 33.188 33.188 0 01-19.605 5.094l-.29-.016c-19.015-1.008-36.898 8.969-45.534 25.41l-.067.122a31.2 31.2 0 01-14.136 13.601l-.165.078c-17.14 8.328-27.53 25.7-26.468 44.246l.015.258a29.654 29.654 0 01-5.164 18.387c-10.66 15.55-10.66 36.055 0 51.601a29.651 29.651 0 015.16 18.387zm8.008-60.902A45.74 45.74 0 00143.25 95.8l-.016-.274a30.414 30.414 0 0117.473-28.925l.137-.067a47.106 47.106 0 0021.336-20.539l.078-.148c5.738-10.93 17.758-17.555 30.523-16.875l.281.011a49.013 49.013 0 0028.993-7.535 33.623 33.623 0 0135.664 0 49.124 49.124 0 0028.988 7.54l.281-.016c12.828-.672 24.79 5.945 30.512 16.843l.105.2a47.1 47.1 0 0021.317 20.511l.133.067c11.312 5.5 18.18 16.855 17.488 28.937l-.016.285a45.731 45.731 0 007.973 28.371 29.546 29.546 0 01-.008 33.426 45.78 45.78 0 00-7.965 28.38l.016.269c.691 12.082-6.176 23.441-17.492 28.945l-.117.055a47.158 47.158 0 00-21.356 20.57l-.058.117c-5.743 10.93-17.743 17.559-30.528 16.875l-.277-.015a49.104 49.104 0 00-29 7.539 33.626 33.626 0 01-35.656 0 49.026 49.026 0 00-26.282-7.614c-.902 0-1.808.024-2.715.075l-.28.011a32.404 32.404 0 01-30.536-16.89l-.082-.153a47.049 47.049 0 00-21.3-20.504l-.15-.074c-11.316-5.5-18.183-16.86-17.487-28.937l.015-.285a45.774 45.774 0 00-7.972-28.372 29.547 29.547 0 01.011-33.421zm0 0"/><path d="M208.27 223.602c3.746 2.34 8.68 1.195 11.02-2.551l94.769-151.82a8.001 8.001 0 10-13.575-8.473l-94.765 151.82a7.999 7.999 0 002.55 11.024zm8.492-82.309c19.48 0 35.332-18.074 35.332-40.29S236.242 60.72 216.762 60.72s-35.328 18.07-35.328 40.285 15.847 40.289 35.328 40.289zm0-64.574c10.66 0 19.332 10.894 19.332 24.285s-8.672 24.289-19.332 24.289c-10.657 0-19.328-10.902-19.328-24.29 0-13.386 8.671-24.284 19.328-24.284zM267.684 180.8c0 22.216 15.847 40.286 35.328 40.286s35.332-18.074 35.332-40.285c0-22.207-15.848-40.285-35.328-40.285-19.485 0-35.332 18.066-35.332 40.285zm54.66 0c0 13.391-8.672 24.286-19.332 24.286-10.657 0-19.328-10.895-19.328-24.285s8.671-24.285 19.328-24.285c10.66 0 19.332 10.886 19.332 24.285zm106.308 132.845c-10.593-18.801-34.086-25.961-53.363-16.266l-62.668 29.61a51.047 51.047 0 00-43.516-26.848l-57.851-1.594a61.155 61.155 0 01-26.293-6.79l-5.887-3.05a103.833 103.833 0 00-96.176.102l.368-13.336a8 8 0 00-7.778-8.22l-63.437-1.745a7.997 7.997 0 00-8.215 7.777L.004 412.5a8 8 0 007.777 8.219l63.438 1.746h.222a8.007 8.007 0 007.997-7.781l.18-6.66 16.48-8.825a28.279 28.279 0 0121.101-2.308l98.41 27.62c.172.052.344.09.52.13a105.358 105.358 0 0021.633 2.23 106.739 106.739 0 0044.59-9.73c.343-.157.675-.336.992-.54l142.687-92.3a7.996 7.996 0 002.621-10.656zM16.22 404.94l3.39-123.214 47.446 1.304-3.396 123.22zm258.922-2.097a90.674 90.674 0 01-55.47 6.187l-98.148-27.543a44.22 44.22 0 00-32.976 3.606l-8.422 4.508 2.258-81.926c26.683-17.75 60.91-19.574 89.332-4.766l5.887 3.05a77.228 77.228 0 0033.214 8.58l57.852 1.593c16.25.465 30.05 12.035 33.348 27.957l-86.172-2.371a7.997 7.997 0 00-8.215 7.777 8 8 0 007.777 8.219l95.098 2.617h.226a8.006 8.006 0 007.993-7.781 51.049 51.049 0 00-.774-10.38l64.266-30.37.187-.09a24.435 24.435 0 0127.641 3.867zm0 0"/></symbol><symbol id="icon-phone" viewBox="0 0 513.64 513.64"><path d="M499.66 376.96l-71.68-71.68c-25.6-25.6-69.12-15.359-79.36 17.92-7.68 23.041-33.28 35.841-56.32 30.72-51.2-12.8-120.32-79.36-133.12-133.12-7.68-23.041 7.68-48.641 30.72-56.32 33.28-10.24 43.52-53.76 17.92-79.36l-71.68-71.68c-20.48-17.92-51.2-17.92-69.12 0L18.38 62.08c-48.64 51.2 5.12 186.88 125.44 307.2s256 176.641 307.2 125.44l48.64-48.64c17.921-20.48 17.921-51.2 0-69.12z"/></symbol><symbol id="icon-pie-chart" viewBox="0 0 512.623 512.623"><path d="M512.602 160.223v-24.1c0-25.379-13.351-47.686-33.389-60.306C502.236 45.34 479.866.42 441.368.623c-23.717 0-43.39 17.612-46.649 40.443C175.995-96.716-85.653 137.404 27.152 370.191c-5.012 14.098-2.066 31.521 6.84 43.026C13.955 425.837.603 448.144.603 473.523v24.1c0 8.284 6.716 15 15 15H128.07c8.284 0 15-6.716 15-15v-11.539c69.878 35.266 157.196 35.266 227.066.003v11.536c0 8.284 6.716 15 15 15h112.467c8.284 0 15-6.716 15-15v-24.1c0-25.379-13.351-47.686-33.389-60.306 8.906-11.503 11.852-28.932 6.839-43.028 29.84-59.624 34.819-132.01 13.266-195.072 7.475-.852 13.283-7.191 13.283-14.894zm-71.233-129.6c9.447 0 17.134 7.686 17.134 17.133-.941 22.729-33.329 22.724-34.267 0 0-9.447 7.686-17.133 17.133-17.133zm-328.3 452H30.602v-9.1c2.271-54.715 80.216-54.673 82.467 0zm-58.367-97.466c0-9.447 7.687-17.133 17.134-17.133 22.729.941 22.722 33.329 0 34.267-9.447-.001-17.134-7.687-17.134-17.134zm319.597 64.388c-70.315 43.932-165.068 43.929-235.394-.001-5.424-15.126-15.828-27.89-29.226-36.327 29.8-41.361-16.794-93.745-61.376-68.873C-13.011 203.719 89.74 39.183 241.602 31.116v225.508c0 3.979 1.58 7.793 4.394 10.607l150.794 150.79c-10.145 8.165-18.014 19.04-22.491 31.524zm108.303 23.978v9.1h-82.467v-9.1c2.272-54.715 80.217-54.673 82.467 0zm-58.366-88.366c0-9.447 7.686-17.133 17.133-17.133 22.73.941 22.724 33.329 0 34.267-9.447-.001-17.133-7.687-17.133-17.134zm40.653-40.82c-26.907-16.02-62.697-.049-69.38 29.977L292.816 271.623h189.285a226.768 226.768 0 01-17.212 72.714zM271.602 241.623V31.114c46.164 3.03 89.855 20.007 125.909 48.854a71.176 71.176 0 00-27.376 56.156v24.1c0 8.284 6.716 15 15 15h82.346c8.245 21.29 13.147 43.536 14.636 66.4H271.602zm211-96.4h-82.467v-9.1c2.271-54.715 80.216-54.673 82.467 0z"/></symbol><symbol id="icon-pin" viewBox="0 0 512 512"><path d="M256 0C153.755 0 70.573 83.182 70.573 185.426c0 126.888 165.939 313.167 173.004 321.035 6.636 7.391 18.222 7.378 24.846 0 7.065-7.868 173.004-194.147 173.004-321.035C441.425 83.182 358.244 0 256 0zm0 278.719c-51.442 0-93.292-41.851-93.292-93.293S204.559 92.134 256 92.134s93.291 41.851 93.291 93.293-41.85 93.292-93.291 93.292z"/></symbol><symbol id="icon-right-arrow" viewBox="0 0 492.004 492.004"><path d="M382.678 226.804L163.73 7.86C158.666 2.792 151.906 0 144.698 0s-13.968 2.792-19.032 7.86l-16.124 16.12c-10.492 10.504-10.492 27.576 0 38.064L293.398 245.9l-184.06 184.06c-5.064 5.068-7.86 11.824-7.86 19.028 0 7.212 2.796 13.968 7.86 19.04l16.124 16.116c5.068 5.068 11.824 7.86 19.032 7.86s13.968-2.792 19.032-7.86L382.678 265c5.076-5.084 7.864-11.872 7.848-19.088.016-7.244-2.772-14.028-7.848-19.108z"/></symbol><symbol id="icon-risk" viewBox="0 0 512 512"><path d="M184 312v-88a8 8 0 00-8-8h-32a8 8 0 00-8 8v88h16v-80h16v80zm128 32V232a8 8 0 00-8-8h-32a8 8 0 00-8 8v112h16V240h16v104zm-64 0V200a8 8 0 00-8-8h-32a8 8 0 00-8 8v128h16V208h16v136zm128-64v-80a8 8 0 00-8-8h-32a8 8 0 00-8 8v88h16v-80h16v72zm64-8V152a8 8 0 00-8-8h-32a8 8 0 00-8 8v120h16V160h16v112z"/><path d="M138.343 197.657a8.001 8.001 0 0011.314 0l66.037-66.038 66.36 73.733a7.999 7.999 0 005.736 2.645l.21.003a8.001 8.001 0 005.657-2.343L400 99.314V120a8 8 0 008 8h32a8 8 0 008-8V24a8 8 0 00-8-8h-96a8 8 0 00-8 8v32a8 8 0 008 8h20.687l-76.381 76.38-66.36-73.732a8 8 0 00-11.603-.305l-96 96a8 8 0 000 11.314zm77.351-114.038l66.36 73.733a8 8 0 0011.603.305l96-96A8 8 0 00384 48h-32V32h80v80h-16V80a8 8 0 00-13.657-5.657L288.306 188.381l-66.36-73.733a7.999 7.999 0 00-5.736-2.645A7.35 7.35 0 00216 112a8.001 8.001 0 00-5.657 2.343L144 180.686 131.313 168zM88 488v-16h24a8 8 0 008-8v-20.96a201.127 201.127 0 00278.226-5.95l87.431-87.429a30.628 30.628 0 00-37.417-47.92 31.177 31.177 0 00-51.187-1.707l-3.392 4.55a34.412 34.412 0 00-5.546-3.47 34.336 34.336 0 00-46.668 16.62l-20.167 44.815A35.795 35.795 0 00308 360h-96.687l-13.656-13.657A64.675 64.675 0 00120 335.93V328a8 8 0 00-8-8H88v-8a8 8 0 00-8-8H16v16h56v160H16v16h64a8 8 0 008-8zm341.867-182.35a15.135 15.135 0 016.128 7.04l-63.475 63.476a135.338 135.338 0 01-28.523 21.821l65.884-88.39a15.139 15.139 0 0119.986-3.947zm-73.83 18.65a18.337 18.337 0 0124.922-8.876 18.41 18.41 0 013.136 1.994l-45.033 60.417a36.192 36.192 0 00-4.41-6.011zm-169.694 33.357l16 16A8 8 0 00208 376h100a20 20 0 010 40H208v16h100a35.902 35.902 0 0026.36-11.516 151.104 151.104 0 0049.474-33.004l69.822-69.822a14.63 14.63 0 0120.689 20.69l-87.434 87.428a185.138 185.138 0 01-261.823-.002L120 420.686v-65.207a48.624 48.624 0 0166.343 2.178zM104 336v120H88V336z"/></symbol><symbol id="icon-search-2" viewBox="0 0 118.783 118.783"><path d="M115.97 101.597L88.661 74.286a47.75 47.75 0 007.333-25.488c0-26.509-21.49-47.996-47.998-47.996S0 22.289 0 48.798c0 26.51 21.487 47.995 47.996 47.995a47.776 47.776 0 0027.414-8.605l26.984 26.986a9.574 9.574 0 006.788 2.806 9.58 9.58 0 006.791-2.806 9.602 9.602 0 00-.003-13.577zM47.996 81.243c-17.917 0-32.443-14.525-32.443-32.443s14.526-32.444 32.443-32.444c17.918 0 32.443 14.526 32.443 32.444S65.914 81.243 47.996 81.243z"/></symbol><symbol id="icon-search" viewBox="0 0 512 512"><path d="M225.474 0C101.151 0 0 101.151 0 225.474c0 124.33 101.151 225.474 225.474 225.474 124.33 0 225.474-101.144 225.474-225.474C450.948 101.151 349.804 0 225.474 0zm0 409.323c-101.373 0-183.848-82.475-183.848-183.848S124.101 41.626 225.474 41.626s183.848 82.475 183.848 183.848-82.475 183.849-183.848 183.849z"/><path d="M505.902 476.472L386.574 357.144c-8.131-8.131-21.299-8.131-29.43 0-8.131 8.124-8.131 21.306 0 29.43l119.328 119.328A20.74 20.74 0 00491.187 512a20.754 20.754 0 0014.715-6.098c8.131-8.124 8.131-21.306 0-29.43z"/></symbol><symbol id="icon-twitter" viewBox="0 0 512 512"><path d="M512 97.248c-19.04 8.352-39.328 13.888-60.48 16.576 21.76-12.992 38.368-33.408 46.176-58.016-20.288 12.096-42.688 20.64-66.56 25.408C411.872 60.704 384.416 48 354.464 48c-58.112 0-104.896 47.168-104.896 104.992 0 8.32.704 16.32 2.432 23.936-87.264-4.256-164.48-46.08-216.352-109.792-9.056 15.712-14.368 33.696-14.368 53.056 0 36.352 18.72 68.576 46.624 87.232-16.864-.32-33.408-5.216-47.424-12.928v1.152c0 51.008 36.384 93.376 84.096 103.136-8.544 2.336-17.856 3.456-27.52 3.456-6.72 0-13.504-.384-19.872-1.792 13.6 41.568 52.192 72.128 98.08 73.12-35.712 27.936-81.056 44.768-130.144 44.768-8.608 0-16.864-.384-25.12-1.44C46.496 446.88 101.6 464 161.024 464c193.152 0 298.752-160 298.752-298.688 0-4.64-.16-9.12-.384-13.568 20.832-14.784 38.336-33.248 52.608-54.496z"/></symbol></svg>